<?xml version="1.0" encoding="UTF-8"?>
<!-- Created with Inkscape (http://www.inkscape.org/) -->
<svg width="960" height="158.29" version="1.1" viewBox="0 0 254 41.882" xmlns="http://www.w3.org/2000/svg">
 <g transform="matrix(1.4313 0 0 1.4313 -224.01 -209.23)">
  <g transform="matrix(.49317 0 0 .49317 116.71 93.133)" fill="#2ec27e" stroke-width="3.3591" style="inline-size:272.14;white-space:pre" aria-label="OpenSOM">
   <g fill="#5e5c64">
    <path d="m195.18 138.31q0 2.741 0.64495 4.9446 0.69869 2.2036 1.9348 3.8159 1.2899 1.5586 3.1172 2.4185 1.8273 0.85993 4.1921 0.85993 2.311 0 4.1384-0.85993 1.8811-0.85992 3.1172-2.4185 1.2899-1.6124 1.9348-3.8159 0.69868-2.2036 0.69868-4.9446t-0.69868-4.9446q-0.64495-2.2573-1.9348-3.8159-1.2361-1.6124-3.1172-2.4723-1.8273-0.85992-4.1384-0.85992-2.3648 0-4.1921 0.91367-1.8273 0.85992-3.1172 2.4723-1.2361 1.5586-1.9348 3.8159-0.64495 2.2036-0.64495 4.8908zm28.431 0q0 4.7833-1.4511 8.438-1.3974 3.6009-3.8697 6.0732-2.4723 2.4185-5.912 3.6547-3.386 1.2361-7.3094 1.2361-3.8159 0-7.2019-1.2361t-5.912-3.6547q-2.526-2.4723-3.9772-6.0732-1.4511-3.6547-1.4511-8.438t1.5049-8.3843q1.5049-3.6547 4.0309-6.127 2.5798-2.4723 5.912-3.7084 3.386-1.2361 7.0944-1.2361 3.8159 0 7.2019 1.2361t5.912 3.7084q2.526 2.4723 3.9772 6.127 1.4511 3.6009 1.4511 8.3843z"/>
    <path d="m248.17 143.04q0-3.7084-1.6661-5.912-1.6661-2.2573-4.9446-2.2573-1.0749 0-1.9886 0.10749-0.91367 0.0538-1.5049 0.16124v14.457q0.75243 0.48371 1.9348 0.80618 1.2361 0.32247 2.4723 0.32247 5.697 0 5.697-7.6856zm8.1693-0.21499q0 3.2785-0.80618 5.9657-0.80618 2.6873-2.3648 4.6221-1.5586 1.9348-3.8697 3.0097-2.311 1.0749-5.3208 1.0749-1.6661 0-3.1172-0.32247-1.4511-0.32247-2.7948-0.91367v10.642h-8.008v-37.245q1.0749-0.32248 2.4723-0.5912 1.3974-0.32247 2.9022-0.53746 1.5586-0.21498 3.1172-0.32247 1.6124-0.16123 3.0635-0.16123 3.4934 0 6.2344 1.0749 2.741 1.0212 4.6221 2.956 1.8811 1.8811 2.8485 4.6221 1.0212 2.741 1.0212 6.127z"/>
    <path d="m261.18 143.04q0-3.7622 1.1286-6.5569 1.1824-2.8485 3.0635-4.7296 1.8811-1.8811 4.2996-2.8485 2.4723-0.96741 5.0521-0.96741 6.0195 0 9.5129 3.7084 3.4934 3.6547 3.4934 10.803 0 0.69869-0.0537 1.5586-0.0538 0.80618-0.10749 1.4511h-18.166q0.26872 2.4723 2.311 3.9234 2.0423 1.4511 5.482 1.4511 2.2036 0 4.2996-0.37621 2.1498-0.42997 3.4934-1.0212l1.0749 6.5032q-0.64494 0.32247-1.7198 0.64494t-2.4185 0.53745q-1.2899 0.26873-2.7948 0.42997-1.5049 0.16123-3.0097 0.16123-3.8159 0-6.6644-1.1286-2.7948-1.1286-4.6758-3.0635-1.8273-1.9886-2.741-4.6758-0.85992-2.6873-0.85992-5.8045zm18.811-3.0635q-0.0537-1.0212-0.37622-1.9886-0.26872-0.96742-0.91367-1.7198-0.59119-0.75244-1.5586-1.2361-0.91367-0.48371-2.311-0.48371-1.3436 0-2.311 0.48371-0.96741 0.42996-1.6124 1.1824-0.64495 0.75244-1.0212 1.7736-0.32247 0.96741-0.4837 1.9886z"/>
    <path d="m293.91 129.65q2.0423-0.5912 5.267-1.0749 3.2247-0.53745 6.7719-0.53745 3.6009 0 5.9657 0.96741 2.4185 0.91367 3.8159 2.6335t1.9886 4.0846q0.5912 2.3648 0.5912 5.267v15.962h-8.008v-14.995q0-3.8697-1.0212-5.482t-3.8159-1.6124q-0.85993 0-1.8273 0.10749-0.96742 0.0538-1.7198 0.16124v21.821h-8.008z"/>
   </g>
   <path d="m336.26 150.56q1.7736 0 2.9022-0.26873 1.1824-0.32247 1.8811-0.80618 0.69869-0.53745 0.96741-1.2361 0.26873-0.69869 0.26873-1.5586 0-1.8273-1.7198-3.0097-1.7198-1.2361-5.912-2.6335-1.8273-0.64494-3.6547-1.4511-1.8273-0.85993-3.2785-2.0961-1.4511-1.2899-2.3648-3.0635-0.91367-1.8273-0.91367-4.4071 0-2.5798 0.96741-4.6221 0.96742-2.0961 2.741-3.5472 1.7736-1.4511 4.2996-2.2036 2.526-0.80618 5.697-0.80618 3.7622 0 6.5032 0.80618t4.5146 1.7736l-2.4185 6.6107q-1.5586-0.80618-3.4934-1.3974-1.8811-0.64494-4.5684-0.64494-3.0097 0-4.3534 0.85992-1.2899 0.80618-1.2899 2.526 0 1.0212 0.4837 1.7198 0.48371 0.69869 1.3436 1.2899 0.91367 0.53745 2.0423 1.0212 1.1824 0.42996 2.5798 0.91367 2.9022 1.0749 5.0521 2.1498 2.1498 1.0212 3.5472 2.4185 1.4511 1.3974 2.1498 3.2785 0.69869 1.8811 0.69869 4.5684 0 5.2133-3.6547 8.1155-3.6547 2.8485-11.018 2.8485-2.4723 0-4.4609-0.32247-1.9886-0.26873-3.5472-0.69869-1.5049-0.42996-2.6335-0.91367-1.0749-0.48371-1.8273-0.91367l2.3648-6.6644q1.6661 0.91367 4.0846 1.6661 2.4723 0.69869 6.0195 0.69869z"/>
   <path d="m364.42 138.31q0 2.741 0.64494 4.9446 0.69869 2.2036 1.9348 3.8159 1.2899 1.5586 3.1172 2.4185 1.8273 0.85993 4.1921 0.85993 2.311 0 4.1384-0.85993 1.8811-0.85992 3.1172-2.4185 1.2899-1.6124 1.9348-3.8159 0.69869-2.2036 0.69869-4.9446t-0.69869-4.9446q-0.64495-2.2573-1.9348-3.8159-1.2361-1.6124-3.1172-2.4723-1.8273-0.85992-4.1384-0.85992-2.3648 0-4.1921 0.91367-1.8273 0.85992-3.1172 2.4723-1.2361 1.5586-1.9348 3.8159-0.64494 2.2036-0.64494 4.8908zm28.431 0q0 4.7833-1.4511 8.438-1.3974 3.6009-3.8697 6.0732-2.4723 2.4185-5.912 3.6547-3.386 1.2361-7.3094 1.2361-3.8159 0-7.2019-1.2361-3.386-1.2361-5.912-3.6547-2.526-2.4723-3.9772-6.0732-1.4511-3.6547-1.4511-8.438t1.5049-8.3843q1.5049-3.6547 4.0309-6.127 2.5798-2.4723 5.912-3.7084 3.386-1.2361 7.0944-1.2361 3.8159 0 7.2019 1.2361 3.386 1.2361 5.912 3.7084 2.526 2.4723 3.9772 6.127 1.4511 3.6009 1.4511 8.3843z"/>
   <path d="m409.73 119.71q0.96742 1.7736 2.2036 4.4071 1.2899 2.5798 2.6335 5.6433 1.3974 3.0097 2.741 6.1807 1.3436 3.171 2.526 5.9657 1.1824-2.7948 2.526-5.9657 1.3436-3.171 2.6873-6.1807 1.3974-3.0635 2.6335-5.6433 1.2899-2.6335 2.2573-4.4071h7.6318q0.53745 3.7084 0.96741 8.3305 0.48371 4.5684 0.80618 9.5667 0.37622 4.9446 0.64495 9.9429 0.32247 4.9983 0.53745 9.4054h-8.1693q-0.16123-5.4283-0.42996-11.824t-0.80618-12.899q-0.96741 2.2573-2.1498 4.9983t-2.3648 5.482q-1.1286 2.741-2.2036 5.267-1.0749 2.4723-1.8273 4.2459h-5.8582q-0.75243-1.7736-1.8273-4.2459-1.0749-2.526-2.2573-5.267-1.1286-2.741-2.311-5.482t-2.1498-4.9983q-0.53745 6.5032-0.80618 12.899t-0.42996 11.824h-8.1693q0.21498-4.4071 0.48371-9.4054 0.32247-4.9983 0.64494-9.9429 0.37622-4.9983 0.80618-9.5667 0.48371-4.6221 1.0212-8.3305z"/>
  </g>
 </g>
 <g fill-rule="evenodd" stroke-linecap="round" stroke-linejoin="round">
  <path d="m29.883 4.9803c-14.67 0-26.563 11.893-26.563 26.563h53.124c0-14.67-11.893-26.563-26.563-26.563z" fill="#2ec27e" stroke-width="2.1186" style="paint-order:stroke fill markers"/>
  <rect y="34.863" width="59.765" height="6.6404" ry="3.3202" fill="#5e5c64" stroke-width="1.5433" style="paint-order:stroke fill markers"/>
  <rect x="26.561" y="7.3682e-6" width="6.6404" height="3.3202" ry="1.6602" fill="#2ec27e" stroke-width=".82437" style="paint-order:stroke fill markers"/>
 </g>
</svg>
