<?xml version="1.0" standalone="no"?>
<!DOCTYPE svg PUBLIC "-//W3C//DTD SVG 20010904//EN"
 "http://www.w3.org/TR/2001/REC-SVG-20010904/DTD/svg10.dtd">
<svg version="1.0" xmlns="http://www.w3.org/2000/svg"
 width="700.000000pt" height="700.000000pt" viewBox="0 0 700.000000 700.000000"
 preserveAspectRatio="xMidYMid meet">
<metadata>
Created by potrace 1.14, written by Peter Selinger 2001-2017
</metadata>
<g transform="translate(0.000000,700.000000) scale(0.100000,-0.100000)"
fill="#000000" stroke="none">
<path d="M681 6984 c-48 -34 -51 -58 -51 -431 1 -1438 160 -2205 603 -2903 61
-95 128 -191 266 -376 119 -160 443 -757 559 -1029 156 -368 257 -739 316
-1170 30 -221 56 -553 56 -737 l0 -107 -414 -3 -414 -3 -26 -24 c-58 -55 -54
-144 8 -182 30 -18 62 -19 972 -19 929 0 942 0 967 20 42 34 50 77 43 234 -9
182 -31 381 -60 529 l-23 117 164 0 c182 0 211 7 238 60 14 26 15 98 13 559
l-3 529 -24 26 c-49 52 -124 51 -173 -4 l-28 -30 0 -455 0 -456 -126 3 -126 3
-38 105 c-100 282 -249 559 -438 815 -148 199 -284 349 -687 755 -446 451
-468 475 -617 670 -477 628 -675 1200 -748 2165 -11 145 -29 747 -30 988 l0
137 786 0 787 0 -7 -507 c-8 -612 -8 -563 9 -589 13 -20 -1 -35 -250 -284
-247 -247 -266 -263 -287 -253 -64 32 -123 17 -158 -39 -23 -39 -25 -94 -9
-285 83 -986 668 -1850 1549 -2287 312 -155 602 -241 945 -281 163 -19 462
-19 620 0 65 8 120 13 121 12 0 -1 265 -393 589 -872 323 -478 602 -885 621
-902 40 -39 91 -44 140 -14 36 22 59 78 49 118 -9 39 -3368 5000 -3423 5056
-58 60 -177 140 -244 164 -49 17 -50 18 -44 53 3 19 9 258 13 530 7 546 6 556
-51 591 -30 18 -62 19 -971 19 -853 0 -943 -2 -964 -16z m2473 -5798 c96 -255
176 -667 176 -903 l0 -53 -329 0 -328 0 -7 46 c-3 26 -6 90 -6 143 0 92 -13
303 -26 424 l-6 57 177 0 c265 0 259 -7 264 280 l3 205 23 -50 c12 -27 39 -94
59 -149z"/>
<path d="M1134 6531 c-37 -22 -59 -76 -49 -120 11 -52 54 -81 136 -92 41 -6
97 -21 126 -35 100 -48 183 -174 183 -278 0 -80 61 -141 133 -132 68 8 92 41
107 146 13 89 45 154 105 209 59 54 115 79 205 90 45 6 79 16 92 28 28 25 50
80 43 106 -21 73 -56 97 -142 97 -122 0 -258 -58 -359 -152 l-64 -60 -67 61
c-104 96 -234 151 -358 151 -42 0 -70 -6 -91 -19z"/>
</g>
</svg>
