<?xml version="1.0" encoding="iso-8859-1"?>
<!-- Generator: Adobe Illustrator 19.0.0, SVG Export Plug-In . SVG Version: 6.00 Build 0)  -->
<svg version="1.1" id="Capa_1" xmlns="http://www.w3.org/2000/svg" xmlns:xlink="http://www.w3.org/1999/xlink" x="0px" y="0px"
	 viewBox="0 0 466 466" style="enable-background:new 0 0 466 466;" xml:space="preserve">
<g>
	<path style="fill:#FFFFFF;" d="M114.812,130.5c0-4.143,3.357-7.5,7.5-7.5c2.063,0,3.931,0.833,5.287,2.181l35.624-35.817
		c-1.482-1.476-2.335-3.548-2.201-5.766c0.848-13.975,1.277-29.484,1.277-46.099V15h-105v22.5
		c0,113.186,18.787,156.548,58.258,205.692c0.005,0.006,0.01,0.013,0.016,0.02c0.024,0.03,0.048,0.06,0.072,0.09
		c8.616,10.72,19.643,21.438,31.316,32.786c29.343,28.523,63.911,62.138,80.492,114.912h16.913v-58.049c0-4.143,3.357-7.5,7.5-7.5
		c1.652,0,3.174,0.54,4.413,1.445c5.005-3.703,9.868-7.689,14.557-11.976C182.415,300.117,114.812,223.061,114.812,130.5z
		 M102.3,67.5c0-12.406-10.094-22.5-22.5-22.5c-4.143,0-7.5-3.357-7.5-7.5s3.357-7.5,7.5-7.5c12.253,0,23.152,5.907,30,15.023
		C116.648,35.907,127.547,30,139.8,30c4.143,0,7.5,3.357,7.5,7.5s-3.357,7.5-7.5,7.5c-12.406,0-22.5,10.094-22.5,22.5
		c0,4.143-3.357,7.5-7.5,7.5S102.3,71.643,102.3,67.5z"/>
	<path style="fill:#00E4C5;" d="M188.898,391v-45.437c-13.671-20.14-29.996-36.836-45.918-52.411
		c12.522,25.155,23.989,55.227,29.973,97.849H188.898z"/>
	<path style="fill:#FF9926;" d="M129.812,130.5c0,94.841,77.159,172,172,172c6.462,0,12.93-0.361,19.335-1.077L187.916,104.549
		c-4.322-6.386-12.155-11.305-20.952-13.157c-1.464-0.308-2.743-1.034-3.74-2.027l-35.624,35.817
		C128.965,126.54,129.812,128.421,129.812,130.5z"/>
	<path d="M117.3,67.5c0-12.406,10.094-22.5,22.5-22.5c4.143,0,7.5-3.357,7.5-7.5s-3.357-7.5-7.5-7.5
		c-12.253,0-23.152,5.907-30,15.023C102.953,35.907,92.053,30,79.8,30c-4.143,0-7.5,3.357-7.5,7.5s3.357,7.5,7.5,7.5
		c12.406,0,22.5,10.094,22.5,22.5c0,4.143,3.357,7.5,7.5,7.5S117.3,71.643,117.3,67.5z"/>
	<path d="M422.411,424.297L200.338,96.142c-5.44-8.039-13.984-14.288-24.005-17.705c0.642-12.645,0.967-26.383,0.967-40.937v-30
		c0-4.143-3.357-7.5-7.5-7.5h-120c-4.143,0-7.5,3.357-7.5,7.5v30c0,57.634,5.026,100.198,15.819,133.955
		c11.204,35.041,28.415,59.516,45.405,80.706c3.173,5.901,6.513,11.827,9.749,17.563c18.762,33.257,38.02,67.4,45.635,128.945
		c0.011,0.503,0.07,0.993,0.176,1.467c1.819,15.173,2.938,31.993,3.171,50.864h-52.454c-4.143,0-7.5,3.357-7.5,7.5
		s3.357,7.5,7.5,7.5h60h60c4.143,0,7.5-3.357,7.5-7.5c0-19.311-2.089-36.706-5.754-52.5h20.321c4.143,0,7.5-3.357,7.5-7.5v-65.549
		c0-2.491-1.219-4.691-3.087-6.055c-1.239-0.905-2.761-1.445-4.413-1.445c-4.143,0-7.5,3.357-7.5,7.5V391h-16.913
		c-16.582-52.774-51.15-86.389-80.492-114.912c-11.674-11.348-22.7-22.066-31.316-32.786c-0.024-0.03-0.048-0.06-0.072-0.09
		c-0.005-0.006-0.01-0.013-0.016-0.02C76.087,194.048,57.299,150.686,57.299,37.5V15h105v22.5c0,16.614-0.43,32.124-1.277,46.099
		c-0.134,2.218,0.72,4.29,2.201,5.766c0.997,0.994,2.276,1.719,3.74,2.027c8.797,1.853,16.63,6.771,20.952,13.157l133.232,196.875
		c-6.405,0.715-12.873,1.077-19.335,1.077c-94.841,0-172-77.159-172-172c0-2.079-0.847-3.96-2.213-5.319
		c-1.356-1.348-3.224-2.181-5.287-2.181c-4.143,0-7.5,3.357-7.5,7.5c0,92.561,67.603,169.617,156.025,184.42
		c10.079,1.688,20.424,2.58,30.975,2.58c9.625,0,19.265-0.744,28.726-2.201l79.451,117.404c2.321,3.432,6.984,4.331,10.414,2.008
		C423.834,432.39,424.733,427.727,422.411,424.297z M188.898,345.563V391h-15.945c-5.984-42.622-17.451-72.693-29.973-97.849
		C158.902,308.727,175.227,325.423,188.898,345.563z M177.248,451c-0.203-16.354-1.068-31.286-2.477-45h21.627
		c4.143,0,7.5-3.357,7.5-7.5v-26.824c4.119,8.688,7.695,17.986,10.572,28.015c0.098,0.612,0.262,1.201,0.498,1.754
		c4.094,14.811,6.668,31.201,7.22,49.556H177.248z"/>
</g>
<g>
</g>
<g>
</g>
<g>
</g>
<g>
</g>
<g>
</g>
<g>
</g>
<g>
</g>
<g>
</g>
<g>
</g>
<g>
</g>
<g>
</g>
<g>
</g>
<g>
</g>
<g>
</g>
<g>
</g>
</svg>
