<?xml version="1.0" encoding="UTF-8"?>
<!-- Created with Inkscape (http://www.inkscape.org/) -->
<svg width="677.65" height="128.19" version="1.1" viewBox="0 0 179.29 33.916" xmlns="http://www.w3.org/2000/svg">
 <g transform="translate(-201.71 -130.03)">
  <g transform="matrix(1.4313 0 0 1.4313 -97.008 -87.165)" stroke-width="1.6566">
   <g fill="#5e5c64">
    <path d="m212.97 161.34q0 1.3518 0.31807 2.4385 0.34458 1.0867 0.9542 1.8819 0.63614 0.76866 1.5373 1.1928 0.90118 0.42409 2.0674 0.42409 1.1397 0 2.0409-0.42409 0.92769-0.42409 1.5373-1.1928 0.63614-0.79517 0.9542-1.8819 0.34457-1.0867 0.34457-2.4385t-0.34457-2.4385q-0.31806-1.1132-0.9542-1.8819-0.60963-0.79517-1.5373-1.2193-0.90119-0.42409-2.0409-0.42409-1.1662 0-2.0674 0.4506-0.90119 0.42408-1.5373 1.2192-0.60962 0.76866-0.9542 1.8819-0.31807 1.0867-0.31807 2.412zm14.021 0q0 2.359-0.71566 4.1614-0.68914 1.7759-1.9084 2.9951-1.2193 1.1928-2.9156 1.8024-1.6698 0.60963-3.6048 0.60963-1.8819 0-3.5518-0.60963-1.6698-0.60963-2.9156-1.8024-1.2458-1.2192-1.9614-2.9951-0.71565-1.8024-0.71565-4.1614t0.74216-4.1349q0.74216-1.8024 1.9879-3.0216 1.2723-1.2193 2.9156-1.8289 1.6698-0.60963 3.4987-0.60963 1.8819 0 3.5517 0.60963 1.6698 0.60962 2.9156 1.8289t1.9614 3.0216q0.71566 1.7759 0.71566 4.1349z" style="inline-size:272.14;white-space:pre"/>
    <path d="m239.1 163.67q0-1.8289-0.82167-2.9156-0.82167-1.1132-2.4385-1.1132-0.53011 0-0.9807 0.053-0.4506 0.0265-0.74216 0.0795v7.13q0.37108 0.23855 0.9542 0.39758 0.60963 0.15904 1.2192 0.15904 2.8096 0 2.8096-3.7903zm4.0288-0.10603q0 1.6168-0.39758 2.9421t-1.1662 2.2795q-0.76867 0.95419-1.9084 1.4843-1.1397 0.5301-2.624 0.5301-0.82167 0-1.5373-0.15903t-1.3783-0.45059v5.2481h-3.9493v-18.368q0.53011-0.15904 1.2192-0.29156 0.68914-0.15904 1.4313-0.26506 0.76866-0.10602 1.5373-0.15904 0.79517-0.0795 1.5108-0.0795 1.7228 0 3.0746 0.53011 1.3518 0.5036 2.2795 1.4578 0.92769 0.9277 1.4048 2.2795 0.5036 1.3518 0.5036 3.0216z" style="inline-size:272.14;white-space:pre"/>
    <path d="m245.52 163.67q0-1.8554 0.55662-3.2337 0.58312-1.4048 1.5108-2.3325 0.9277-0.92769 2.1204-1.4048 1.2192-0.4771 2.4915-0.4771 2.9686 0 4.6915 1.8289 1.7229 1.8024 1.7229 5.3276 0 0.34457-0.0265 0.76865-0.0265 0.39759-0.053 0.71565h-8.9589q0.13253 1.2193 1.1397 1.9349t2.7036 0.71565q1.0867 0 2.1204-0.18554 1.0602-0.21205 1.7228-0.5036l0.53012 3.2072q-0.31807 0.15903-0.84818 0.31806t-1.1928 0.26505q-0.63613 0.13253-1.3783 0.21205-0.74215 0.0795-1.4843 0.0795-1.8819 0-3.2867-0.55662-1.3783-0.55662-2.306-1.5108-0.90119-0.98071-1.3518-2.306-0.42409-1.3253-0.42409-2.8626zm9.2769-1.5108q-0.0265-0.50361-0.18554-0.9807-0.13252-0.47711-0.45059-0.84818-0.29156-0.37108-0.76866-0.60963-0.4506-0.23855-1.1397-0.23855-0.66264 0-1.1397 0.23855-0.4771 0.21204-0.79516 0.58312-0.31807 0.37108-0.50361 0.87469-0.15903 0.47709-0.23855 0.9807z" style="inline-size:272.14;white-space:pre"/>
    <path d="m261.66 157.07q1.0072-0.29156 2.5975-0.53012 1.5903-0.26505 3.3397-0.26505 1.7759 0 2.9421 0.4771 1.1928 0.45059 1.8819 1.2988 0.68914 0.84818 0.9807 2.0144 0.29156 1.1662 0.29156 2.5975v7.8722h-3.9493v-7.395q0-1.9084-0.50361-2.7036-0.5036-0.79517-1.8819-0.79517-0.42409 0-0.90119 0.053-0.4771 0.0265-0.84817 0.0795v10.761h-3.9493z" style="inline-size:272.14;white-space:pre"/>
   </g>
   <g fill="#2ec27e">
    <path d="m282.54 167.38q0.87468 0 1.4313-0.13253 0.58312-0.15903 0.9277-0.39758 0.34457-0.26505 0.47709-0.60963 0.13253-0.34457 0.13253-0.76866 0-0.90118-0.84818-1.4843-0.84817-0.60962-2.9156-1.2988-0.90119-0.31806-1.8024-0.71565-0.90119-0.42409-1.6168-1.0337-0.71565-0.63613-1.1662-1.5108-0.4506-0.90119-0.4506-2.1735 0-1.2723 0.4771-2.2795 0.4771-1.0337 1.3518-1.7494 0.87469-0.71565 2.1204-1.0867 1.2458-0.39758 2.8096-0.39758 1.8554 0 3.2072 0.39758 1.3518 0.39759 2.2265 0.87469l-1.1928 3.2602q-0.76866-0.39758-1.7229-0.68914-0.92769-0.31807-2.253-0.31807-1.4843 0-2.147 0.42409-0.63613 0.39758-0.63613 1.2458 0 0.5036 0.23855 0.84818 0.23855 0.34457 0.66264 0.63613 0.45059 0.26505 1.0072 0.5036 0.58312 0.21205 1.2723 0.4506 1.4313 0.53011 2.4915 1.0602 1.0602 0.5036 1.7494 1.1928 0.71565 0.68914 1.0602 1.6168 0.34457 0.92769 0.34457 2.253 0 2.571-1.8024 4.0023-1.8024 1.4048-5.4336 1.4048-1.2192 0-2.2-0.15904-0.9807-0.13253-1.7494-0.34457-0.74216-0.21204-1.2988-0.45059-0.53012-0.23855-0.90119-0.4506l1.1662-3.2867q0.82167 0.4506 2.0144 0.82168 1.2193 0.34457 2.9686 0.34457z" style="inline-size:272.14;white-space:pre"/>
    <path d="m296.43 161.34q0 1.3518 0.31806 2.4385 0.34458 1.0867 0.9542 1.8819 0.63614 0.76866 1.5373 1.1928 0.90119 0.42409 2.0674 0.42409 1.1397 0 2.0409-0.42409 0.9277-0.42409 1.5373-1.1928 0.63612-0.79517 0.95419-1.8819 0.34458-1.0867 0.34458-2.4385t-0.34458-2.4385q-0.31807-1.1132-0.95419-1.8819-0.60963-0.79517-1.5373-1.2193-0.90119-0.42409-2.0409-0.42409-1.1662 0-2.0674 0.4506-0.90118 0.42408-1.5373 1.2192-0.60962 0.76866-0.9542 1.8819-0.31806 1.0867-0.31806 2.412zm14.021 0q0 2.359-0.71565 4.1614-0.68915 1.7759-1.9084 2.9951-1.2193 1.1928-2.9156 1.8024-1.6698 0.60963-3.6048 0.60963-1.8819 0-3.5518-0.60963-1.6698-0.60963-2.9156-1.8024-1.2458-1.2192-1.9614-2.9951-0.71566-1.8024-0.71566-4.1614t0.74216-4.1349q0.74215-1.8024 1.9879-3.0216 1.2723-1.2193 2.9156-1.8289 1.6699-0.60963 3.4987-0.60963 1.8819 0 3.5517 0.60963 1.6698 0.60962 2.9156 1.8289t1.9614 3.0216q0.71565 1.7759 0.71565 4.1349z" style="inline-size:272.14;white-space:pre"/>
    <path d="m318.78 152.17q0.4771 0.87468 1.0867 2.1734 0.63614 1.2723 1.2988 2.7831 0.68914 1.4843 1.3518 3.0481 0.66264 1.5638 1.2458 2.9421 0.58312-1.3783 1.2458-2.9421 0.66264-1.5638 1.3253-3.0481 0.68915-1.5108 1.2988-2.7831 0.63613-1.2988 1.1132-2.1734h3.7638q0.26505 1.8289 0.47709 4.1084 0.23856 2.253 0.39759 4.718 0.18554 2.4385 0.31807 4.9035 0.15903 2.465 0.26505 4.6385h-4.0288q-0.0795-2.6771-0.21205-5.8312-0.13253-3.1542-0.39758-6.3613-0.4771 1.1132-1.0602 2.465-0.58312 1.3518-1.1662 2.7036-0.55662 1.3518-1.0867 2.5975-0.53011 1.2193-0.90119 2.0939h-2.8891q-0.37108-0.87468-0.90119-2.0939-0.53011-1.2458-1.1132-2.5975-0.55662-1.3518-1.1397-2.7036-0.58313-1.3518-1.0602-2.465-0.26506 3.2072-0.39759 6.3613t-0.21204 5.8312h-4.0288q0.10602-2.1735 0.23855-4.6385 0.15903-2.465 0.31806-4.9035 0.18554-2.465 0.39758-4.718 0.23856-2.2795 0.50361-4.1084z" style="inline-size:272.14;white-space:pre"/>
   </g>
  </g>
 </g>
</svg>
