<?xml version="1.0" standalone="no"?>
<!DOCTYPE svg PUBLIC "-//W3C//DTD SVG 20010904//EN"
 "http://www.w3.org/TR/2001/REC-SVG-20010904/DTD/svg10.dtd">
<svg version="1.0" xmlns="http://www.w3.org/2000/svg"
 width="700.000000pt" height="700.000000pt" viewBox="0 0 700.000000 700.000000"
 preserveAspectRatio="xMidYMid meet">
<metadata>
Created by potrace 1.14, written by Peter Selinger 2001-2017
</metadata>
<g transform="translate(0.000000,700.000000) scale(0.100000,-0.100000)"
fill="#000000" stroke="none">
<path d="M3235 5918 c-16 -6 -43 -22 -58 -37 -93 -86 -82 -232 22 -306 l43
-30 251 0 c228 0 256 2 291 19 106 53 136 205 59 297 -54 63 -81 69 -343 68
-136 0 -248 -5 -265 -11z"/>
<path d="M3338 5345 c-2 -1 -46 -6 -98 -10 -52 -4 -108 -8 -125 -10 -27 -3
-188 -30 -240 -40 -11 -2 -33 -7 -50 -10 -16 -3 -37 -8 -45 -11 -8 -3 -26 -8
-40 -10 -14 -3 -63 -16 -110 -30 -431 -129 -791 -323 -1149 -619 -67 -55 -271
-260 -334 -335 -40 -47 -74 -87 -77 -90 -37 -36 -198 -271 -244 -355 -16 -27
-32 -54 -36 -60 -17 -21 -130 -254 -165 -340 -20 -49 -40 -99 -45 -110 -21
-50 -87 -271 -106 -355 -4 -19 -8 -37 -9 -40 -16 -66 -28 -135 -44 -242 -16
-106 -21 -157 -27 -308 l-6 -135 3108 1 3109 0 0 110 c0 60 -3 136 -6 169 -4
33 -10 86 -13 117 -13 116 -53 320 -82 418 -125 423 -271 723 -509 1045 -214
289 -553 601 -850 782 -105 64 -213 123 -308 168 -124 59 -317 137 -317 128 0
-3 -6 -1 -12 4 -30 23 -384 115 -493 128 -16 2 -43 6 -60 9 -16 4 -55 9 -85
11 -30 3 -73 8 -95 11 -38 6 -431 14 -437 9z"/>
<path d="M307 1838 c-113 -24 -217 -108 -270 -218 -28 -59 -31 -74 -31 -160
-1 -86 2 -101 31 -162 40 -85 106 -151 191 -191 l67 -32 3205 0 3205 0 67 32
c85 40 151 106 191 191 29 61 32 76 31 162 0 86 -3 101 -31 160 -57 118 -160
198 -283 219 -69 12 -6319 11 -6373 -1z"/>
</g>
</svg>
